<svg xmlns="http://www.w3.org/2000/svg" xmlns:xlink="http://www.w3.org/1999/xlink" width="260" zoomAndPan="magnify" viewBox="0 0 194.87999 195.000001" height="260" preserveAspectRatio="xMidYMid meet" version="1.0"><path fill="#ffffff" d="M 22.976562 70.933594 C 22.976562 70.933594 28.90625 82.585938 31.496094 95.113281 C 34.09375 107.648438 29.894531 129.644531 62.875 147.117188 C 95.804688 164.558594 136.523438 150.378906 144.117188 131.429688 C 153.644531 107.648438 160.371094 98.089844 178.007812 89.289062 C 178.007812 89.289062 164.527344 89.78125 155.183594 73.183594 C 149.550781 63.152344 144.835938 48.816406 123.222656 46.257812 C 110.167969 44.707031 104.386719 55.324219 96.34375 53.25 C 88.304688 51.175781 84.628906 43.109375 72.746094 43.457031 C 44.222656 44.292969 45.28125 77.183594 22.976562 70.933594 " fill-opacity="1" fill-rule="nonzero"/><path fill="#5e17eb" d="M 26.695312 73.800781 C 28.695312 78.320312 31.859375 86.257812 33.605469 94.679688 C 34.070312 96.921875 34.324219 99.425781 34.59375 102.070312 C 35.84375 114.390625 37.550781 131.265625 63.882812 145.21875 C 80.558594 154.046875 101.367188 155.34375 119.546875 148.683594 C 130.800781 144.5625 139.242188 137.808594 142.117188 130.621094 C 150.308594 110.191406 156.675781 99.195312 171.585938 90.332031 C 166.40625 88.664062 159.097656 84.523438 153.3125 74.234375 C 152.621094 73.003906 151.9375 71.707031 151.238281 70.371094 C 146.363281 61.0625 140.835938 50.511719 122.976562 48.390625 C 116.644531 47.640625 112.269531 50.019531 108.039062 52.324219 C 104.085938 54.476562 100.351562 56.503906 95.804688 55.332031 C 92.296875 54.425781 89.582031 52.535156 86.953125 50.707031 C 83.042969 47.984375 79.320312 45.421875 72.808594 45.605469 C 59.472656 46 53.191406 53.78125 47.121094 61.304688 C 41.828125 67.859375 36.386719 74.605469 26.695312 73.800781 Z M 95.574219 157.195312 C 83.800781 157.195312 72.105469 154.441406 61.867188 149.015625 C 33.503906 133.992188 31.582031 115.046875 30.3125 102.503906 C 30.054688 99.980469 29.8125 97.582031 29.394531 95.550781 C 26.886719 83.441406 21.121094 72.023438 21.0625 71.910156 C 20.671875 71.148438 20.773438 70.230469 21.316406 69.574219 C 21.859375 68.910156 22.738281 68.628906 23.558594 68.863281 C 33.296875 71.597656 37.6875 66.144531 43.773438 58.605469 C 49.828125 51.101562 57.363281 41.753906 72.683594 41.304688 C 80.714844 41.089844 85.300781 44.316406 89.414062 47.179688 C 91.832031 48.863281 94.117188 50.453125 96.882812 51.167969 C 99.78125 51.921875 102.527344 50.425781 105.984375 48.542969 C 110.351562 46.167969 115.796875 43.207031 123.484375 44.125 C 143.597656 46.507812 149.949219 58.632812 155.054688 68.378906 C 155.726562 69.671875 156.390625 70.929688 157.0625 72.125 C 165.585938 87.285156 177.445312 87.136719 177.945312 87.140625 C 178.949219 87.148438 179.84375 87.792969 180.09375 88.769531 C 180.332031 89.746094 179.871094 90.765625 178.96875 91.214844 C 161.542969 99.90625 155.210938 109.515625 146.105469 132.222656 C 142.734375 140.644531 133.589844 148.121094 121.03125 152.71875 C 112.867188 155.714844 104.195312 157.195312 95.574219 157.195312 " fill-opacity="1" fill-rule="nonzero"/><path fill="#5e17eb" d="M 33.964844 82.484375 C 33.964844 82.484375 36.839844 85.21875 41.417969 86.453125 C 44.269531 87.222656 47.78125 87.40625 51.660156 85.992188 C 61.773438 82.292969 66.832031 82.527344 75.777344 87.0625 C 84.71875 91.589844 85.300781 93.382812 93.667969 93.382812 C 102.03125 93.382812 105.917969 87.839844 117.585938 89.683594 C 129.261719 91.53125 139.445312 99.445312 152.207031 98.089844 C 152.207031 98.089844 131.980469 109.480469 118.5625 110.492188 C 108.15625 111.277344 84.515625 117.855469 67.789062 107.15625 C 62.667969 103.878906 54.566406 96.9375 50.429688 93.84375 C 41.058594 86.832031 33.964844 82.484375 33.964844 82.484375 " fill-opacity="1" fill-rule="nonzero"/><path fill="#5e17eb" d="M 45.882812 88.605469 C 47.585938 89.8125 49.429688 91.152344 51.359375 92.601562 C 52.785156 93.664062 54.675781 95.183594 56.753906 96.847656 C 60.769531 100.070312 65.328125 103.730469 68.628906 105.839844 C 81.660156 114.179688 99.339844 111.601562 111.042969 109.875 C 113.917969 109.460938 116.394531 109.101562 118.441406 108.945312 C 127.160156 108.28125 139.027344 103.011719 145.902344 99.621094 C 140.382812 99.03125 135.304688 97.085938 130.339844 95.191406 C 125.933594 93.511719 121.769531 91.921875 117.34375 91.222656 C 110.886719 90.195312 106.933594 91.585938 103.117188 92.925781 C 100.296875 93.914062 97.386719 94.9375 93.671875 94.9375 C 86.898438 94.9375 84.800781 93.765625 80.214844 91.207031 C 78.832031 90.433594 77.1875 89.515625 75.070312 88.445312 C 66.546875 84.128906 61.847656 83.925781 52.191406 87.453125 C 50.109375 88.210938 48 88.597656 45.882812 88.605469 Z M 92 114.769531 C 83.5 114.769531 74.574219 113.339844 66.949219 108.464844 C 63.511719 106.265625 58.886719 102.550781 54.804688 99.277344 C 52.761719 97.628906 50.898438 96.140625 49.496094 95.089844 C 44.753906 91.542969 40.574219 88.664062 37.632812 86.703125 C 34.726562 85.332031 32.988281 83.707031 32.890625 83.617188 C 32.3125 83.066406 32.242188 82.171875 32.730469 81.539062 C 33.210938 80.910156 34.09375 80.746094 34.773438 81.15625 C 34.808594 81.179688 36.445312 82.183594 39.148438 83.976562 C 39.945312 84.34375 40.84375 84.683594 41.820312 84.949219 C 44.933594 85.785156 48.058594 85.644531 51.125 84.53125 C 61.664062 80.683594 67.109375 80.925781 76.480469 85.671875 C 78.640625 86.765625 80.316406 87.699219 81.730469 88.488281 C 86.078125 90.917969 87.707031 91.824219 93.671875 91.824219 C 96.851562 91.824219 99.394531 90.933594 102.085938 89.988281 C 106.074219 88.589844 110.601562 87 117.832031 88.148438 C 122.578125 88.894531 127.085938 90.621094 131.453125 92.285156 C 138.246094 94.875 144.667969 97.324219 152.039062 96.539062 C 152.777344 96.492188 153.46875 96.910156 153.691406 97.609375 C 153.921875 98.320312 153.617188 99.078125 152.972656 99.445312 C 152.132812 99.914062 132.28125 111.019531 118.671875 112.042969 C 116.738281 112.191406 114.304688 112.550781 111.492188 112.964844 C 105.957031 113.773438 99.117188 114.769531 92 114.769531 " fill-opacity="1" fill-rule="nonzero"/><path fill="#ffffff" d="M 79.449219 111.914062 C 79.449219 111.914062 91.335938 105.277344 96.582031 100.226562 C 101.835938 95.171875 108.304688 87.617188 112.921875 80.746094 C 121.289062 68.292969 138.78125 57.632812 150.316406 61.921875 C 166.40625 67.902344 163.117188 81.597656 158.25 89.808594 C 153.394531 98.015625 152.207031 98.089844 148.125 101.351562 C 144.992188 103.859375 138.199219 108.164062 121.824219 110.070312 C 107.070312 111.785156 90.847656 114.742188 79.449219 111.914062 " fill-opacity="1" fill-rule="nonzero"/><path fill="#5e17eb" d="M 83.867188 111.140625 C 92.5625 112.226562 103.476562 110.824219 114.082031 109.460938 C 116.625 109.140625 119.160156 108.816406 121.648438 108.523438 C 133.316406 107.15625 141.894531 104.347656 147.15625 100.136719 C 147.792969 99.621094 148.371094 99.1875 148.898438 98.78125 C 151.609375 96.71875 152.960938 95.683594 156.914062 89.011719 C 158.59375 86.175781 162.261719 78.871094 159.949219 72.34375 C 158.546875 68.386719 155.128906 65.367188 149.773438 63.378906 C 139.101562 59.421875 122.191406 69.730469 114.210938 81.613281 C 109.835938 88.136719 103.339844 95.882812 97.660156 101.34375 C 94.136719 104.742188 87.859375 108.734375 83.867188 111.140625 Z M 90.800781 114.640625 C 86.582031 114.640625 82.613281 114.300781 79.070312 113.414062 C 78.453125 113.257812 77.992188 112.75 77.910156 112.117188 C 77.820312 111.480469 78.132812 110.863281 78.6875 110.550781 C 78.808594 110.484375 90.464844 103.960938 95.503906 99.105469 C 101.035156 93.78125 107.363281 86.238281 111.632812 79.878906 C 120.265625 67.011719 138.503906 55.871094 150.859375 60.460938 C 157.109375 62.792969 161.15625 66.4375 162.878906 71.308594 C 165.632812 79.074219 161.496094 87.386719 159.597656 90.597656 C 155.332031 97.796875 153.71875 99.019531 150.789062 101.261719 C 150.269531 101.648438 149.71875 102.070312 149.089844 102.570312 C 143.304688 107.203125 134.441406 110.164062 122.007812 111.617188 C 119.527344 111.902344 117.003906 112.226562 114.480469 112.550781 C 106.445312 113.582031 98.234375 114.640625 90.800781 114.640625 " fill-opacity="1" fill-rule="nonzero"/><path fill="#ffffff" d="M 146.835938 66.589844 C 146.835938 66.589844 140.667969 65.636719 134.699219 68.484375 L 146.835938 66.589844 " fill-opacity="1" fill-rule="nonzero"/><path fill="#5e17eb" d="M 134.308594 68.675781 C 134.199219 68.460938 134.292969 68.199219 134.511719 68.097656 C 138.164062 66.347656 141.867188 66 144.261719 66 C 145.867188 66 146.871094 66.164062 146.890625 66.164062 L 146.898438 66.164062 C 147.128906 66.203125 147.292969 66.421875 147.257812 66.65625 C 147.222656 66.890625 146.992188 67.050781 146.761719 67.015625 C 146.761719 67.015625 145.800781 66.867188 144.261719 66.867188 C 141.949219 66.867188 138.363281 67.199219 134.890625 68.875 C 134.828125 68.902344 134.761719 68.917969 134.699219 68.917969 C 134.539062 68.917969 134.382812 68.828125 134.308594 68.675781 " fill-opacity="1" fill-rule="nonzero"/><path fill="#ffffff" d="M 130.910156 70.933594 C 130.910156 70.933594 116.8125 82.691406 110.847656 92.574219 C 104.878906 102.457031 95.804688 107.648438 95.804688 107.648438 L 130.910156 70.933594 " fill-opacity="1" fill-rule="nonzero"/><path fill="#5e17eb" d="M 95.429688 107.847656 C 95.308594 107.648438 95.382812 107.378906 95.589844 107.257812 C 95.589844 107.242188 104.582031 102.117188 110.46875 92.347656 C 116.515625 82.363281 130.613281 70.621094 130.625 70.601562 L 130.632812 70.601562 C 130.808594 70.453125 131.074219 70.476562 131.234375 70.660156 C 131.390625 70.84375 131.351562 71.109375 131.175781 71.265625 C 131.167969 71.289062 117.105469 83.019531 111.21875 92.796875 C 105.171875 102.78125 96.046875 107.988281 96.019531 108.015625 C 95.953125 108.050781 95.878906 108.070312 95.804688 108.070312 C 95.65625 108.070312 95.503906 107.996094 95.429688 107.847656 " fill-opacity="1" fill-rule="nonzero"/><path fill="#5e17eb" d="M 122.277344 110.015625 C 121.980469 109.480469 122.164062 108.816406 122.699219 108.53125 C 132.394531 103.203125 138.152344 96.183594 141.5 90.492188 C 144.851562 84.792969 145.765625 80.523438 145.765625 80.515625 C 145.886719 79.925781 146.476562 79.550781 147.054688 79.679688 C 147.644531 79.8125 148.023438 80.386719 147.894531 80.96875 C 147.855469 81.113281 143.929688 99.335938 123.75 110.4375 C 123.582031 110.53125 123.410156 110.578125 123.222656 110.578125 C 122.835938 110.578125 122.46875 110.375 122.277344 110.015625 " fill-opacity="1" fill-rule="nonzero"/><path fill="#5e17eb" d="M 153.800781 95.480469 C 153.597656 94.914062 153.882812 94.292969 154.464844 94.085938 C 154.464844 94.085938 158.050781 92.8125 161.902344 91.539062 C 162.472656 91.351562 163.082031 91.65625 163.273438 92.230469 C 163.457031 92.800781 163.152344 93.417969 162.582031 93.609375 C 158.757812 94.867188 155.203125 96.136719 155.183594 96.144531 C 155.074219 96.183594 154.953125 96.203125 154.832031 96.203125 C 154.382812 96.203125 153.957031 95.921875 153.800781 95.480469 " fill-opacity="1" fill-rule="nonzero"/><path fill="#5e17eb" d="M 87.050781 131.035156 C 86.445312 130.988281 85.996094 130.464844 86.046875 129.863281 C 86.183594 128.066406 86.246094 126.011719 86.246094 123.996094 C 86.246094 119.035156 85.933594 114.355469 85.933594 114.335938 L 85.933594 114.347656 C 85.890625 113.746094 86.34375 113.222656 86.945312 113.183594 C 87.542969 113.140625 88.0625 113.597656 88.105469 114.199219 C 88.105469 114.207031 88.421875 118.945312 88.421875 123.996094 C 88.421875 126.050781 88.363281 128.160156 88.222656 130.039062 C 88.179688 130.601562 87.703125 131.042969 87.136719 131.042969 C 87.105469 131.042969 87.078125 131.035156 87.050781 131.035156 " fill-opacity="1" fill-rule="nonzero"/><path fill="#5e17eb" d="M 69.519531 125.699219 C 68.933594 125.550781 68.574219 124.972656 68.714844 124.382812 C 70.6875 116.105469 73.019531 112.003906 73.066406 111.929688 L 73.074219 111.929688 C 73.371094 111.414062 74.035156 111.230469 74.554688 111.535156 C 75.074219 111.832031 75.257812 112.492188 74.957031 113.019531 C 74.976562 113.039062 72.753906 116.835938 70.839844 124.886719 C 70.710938 125.394531 70.265625 125.726562 69.773438 125.726562 C 69.691406 125.726562 69.609375 125.71875 69.519531 125.699219 " fill-opacity="1" fill-rule="nonzero"/><path fill="#5e17eb" d="M 104.085938 126.925781 C 103.597656 119.828125 100.085938 113.453125 100.074219 113.441406 C 99.78125 112.925781 99.964844 112.261719 100.492188 111.96875 C 101.015625 111.683594 101.679688 111.867188 101.972656 112.390625 C 102 112.464844 105.707031 119.074219 106.257812 126.769531 C 106.296875 127.367188 105.84375 127.890625 105.246094 127.9375 L 105.171875 127.9375 C 104.601562 127.9375 104.121094 127.496094 104.085938 126.925781 " fill-opacity="1" fill-rule="nonzero"/><path fill="#5e17eb" d="M 119.84375 126.988281 C 119.132812 121.800781 116.800781 118.199219 114.625 115.847656 C 112.460938 113.507812 110.542969 112.503906 110.535156 112.503906 L 110.542969 112.503906 C 110.011719 112.234375 109.808594 111.570312 110.082031 111.039062 C 110.359375 110.511719 111.023438 110.300781 111.558594 110.578125 C 111.679688 110.640625 120.414062 115.25 122 126.695312 C 122.082031 127.292969 121.667969 127.847656 121.066406 127.921875 C 121.023438 127.929688 120.96875 127.929688 120.921875 127.929688 C 120.378906 127.929688 119.917969 127.53125 119.84375 126.988281 " fill-opacity="1" fill-rule="nonzero"/><path fill="#5e17eb" d="M 126.679688 118.761719 C 125.988281 116.390625 124.433594 114.519531 123.011719 113.238281 C 121.601562 111.96875 120.414062 111.34375 120.414062 111.34375 C 119.878906 111.054688 119.675781 110.402344 119.960938 109.875 C 120.238281 109.332031 120.894531 109.128906 121.4375 109.414062 C 121.519531 109.488281 127.011719 112.328125 128.773438 118.152344 C 128.945312 118.722656 128.617188 119.320312 128.035156 119.496094 C 127.933594 119.523438 127.832031 119.542969 127.730469 119.542969 C 127.25 119.542969 126.828125 119.238281 126.679688 118.761719 " fill-opacity="1" fill-rule="nonzero"/><path fill="#5e17eb" d="M 57.863281 118.152344 C 57.324219 117.867188 57.113281 117.210938 57.394531 116.667969 C 59.617188 112.464844 65.792969 105.691406 65.820312 105.648438 C 66.222656 105.203125 66.910156 105.175781 67.355469 105.582031 C 67.800781 105.980469 67.839844 106.660156 67.4375 107.113281 C 67.429688 107.128906 61.253906 113.96875 59.332031 117.691406 C 59.136719 118.058594 58.753906 118.273438 58.359375 118.273438 C 58.1875 118.273438 58.019531 118.234375 57.863281 118.152344 " fill-opacity="1" fill-rule="nonzero"/><path fill="#5e17eb" d="M 52.082031 107.1875 C 51.621094 106.789062 51.566406 106.109375 51.964844 105.648438 C 53.871094 103.5 59.472656 100.570312 59.527344 100.503906 C 60.0625 100.21875 60.714844 100.421875 61 100.957031 C 61.289062 101.472656 61.085938 102.136719 60.5625 102.421875 C 60.5625 102.429688 54.824219 105.582031 53.621094 107.066406 C 53.402344 107.316406 53.09375 107.445312 52.789062 107.445312 C 52.539062 107.445312 52.285156 107.359375 52.082031 107.1875 " fill-opacity="1" fill-rule="nonzero"/><path fill="#5e17eb" d="M 68.890625 85.777344 C 66.296875 83.414062 65.542969 80.226562 65.550781 77.402344 C 65.5625 73.039062 67.257812 69.28125 67.28125 69.207031 L 67.289062 69.207031 C 67.53125 68.660156 68.175781 68.417969 68.722656 68.660156 C 69.273438 68.90625 69.511719 69.546875 69.273438 70.097656 C 69.292969 70.117188 67.714844 73.617188 67.730469 77.402344 C 67.734375 79.890625 68.355469 82.347656 70.363281 84.167969 C 70.808594 84.574219 70.84375 85.269531 70.429688 85.710938 C 70.214844 85.941406 69.925781 86.058594 69.628906 86.058594 C 69.367188 86.058594 69.101562 85.964844 68.890625 85.777344 " fill-opacity="1" fill-rule="nonzero"/><path fill="#5e17eb" d="M 59.792969 84.328125 C 55.785156 82.527344 55.234375 78.585938 55.25 76.660156 C 55.25 76.546875 55.253906 76.449219 55.253906 76.371094 L 55.261719 76.371094 C 55.28125 75.769531 55.785156 75.304688 56.386719 75.332031 C 56.988281 75.351562 57.453125 75.855469 57.433594 76.457031 C 57.425781 76.535156 57.425781 76.601562 57.425781 76.660156 C 57.445312 78.3125 57.851562 81.09375 60.683594 82.339844 C 61.230469 82.582031 61.476562 83.230469 61.230469 83.777344 C 61.046875 84.183594 60.652344 84.421875 60.238281 84.421875 C 60.085938 84.421875 59.933594 84.394531 59.792969 84.328125 " fill-opacity="1" fill-rule="nonzero"/><path fill="#5e17eb" d="M 84.21875 92.785156 C 78.152344 90.542969 76.574219 85.550781 76.625 81.730469 C 76.628906 78.320312 77.699219 75.625 77.722656 75.550781 L 77.730469 75.550781 C 77.941406 74.992188 78.570312 74.714844 79.132812 74.9375 C 79.691406 75.152344 79.964844 75.78125 79.746094 76.34375 C 79.765625 76.359375 78.800781 78.785156 78.804688 81.730469 C 78.859375 85.101562 79.878906 88.777344 84.992188 90.742188 C 85.554688 90.953125 85.835938 91.585938 85.617188 92.152344 C 85.457031 92.582031 85.039062 92.851562 84.597656 92.851562 C 84.472656 92.851562 84.34375 92.832031 84.21875 92.785156 " fill-opacity="1" fill-rule="nonzero"/><path fill="#5e17eb" d="M 97.617188 92.699219 C 97.464844 92.109375 97.816406 91.515625 98.40625 91.367188 C 105.4375 89.605469 106.378906 83.667969 106.425781 80.082031 C 106.425781 78.640625 106.257812 77.714844 106.257812 77.707031 L 106.257812 77.714844 C 106.148438 77.121094 106.546875 76.558594 107.132812 76.453125 C 107.722656 76.339844 108.296875 76.734375 108.40625 77.324219 C 108.414062 77.375 108.609375 78.460938 108.609375 80.082031 C 108.664062 83.9375 107.335938 91.386719 98.941406 93.484375 C 98.851562 93.503906 98.757812 93.519531 98.664062 93.519531 C 98.175781 93.519531 97.734375 93.1875 97.617188 92.699219 " fill-opacity="1" fill-rule="nonzero"/><path fill="#5e17eb" d="M 91.605469 94.390625 C 91.023438 94.222656 90.695312 93.613281 90.871094 93.035156 C 91.277344 91.664062 91.429688 90.148438 91.425781 88.746094 C 91.429688 85.925781 90.859375 83.601562 90.859375 83.59375 C 90.714844 83.011719 91.070312 82.421875 91.660156 82.28125 C 92.234375 82.136719 92.820312 82.488281 92.96875 83.078125 C 92.980469 83.121094 93.597656 85.636719 93.605469 88.746094 C 93.597656 90.300781 93.445312 92.007812 92.960938 93.65625 C 92.820312 94.125 92.386719 94.433594 91.914062 94.433594 C 91.8125 94.433594 91.710938 94.421875 91.605469 94.390625 " fill-opacity="1" fill-rule="nonzero"/><path fill="#5e17eb" d="M 57.820312 56.84375 C 57.589844 56.59375 57.617188 56.199219 57.875 55.96875 C 60.339844 53.765625 63.753906 51.261719 67.410156 50.496094 C 67.742188 50.429688 68.078125 50.644531 68.140625 50.980469 C 68.214844 51.320312 67.996094 51.644531 67.660156 51.71875 C 64.394531 52.378906 61.078125 54.761719 58.703125 56.890625 L 58.703125 56.898438 C 58.589844 57.003906 58.441406 57.054688 58.289062 57.054688 C 58.117188 57.054688 57.949219 56.980469 57.820312 56.84375 " fill-opacity="1" fill-rule="nonzero"/><path fill="#5e17eb" d="M 113.777344 54.835938 C 113.621094 54.519531 113.75 54.148438 114.054688 53.996094 C 116.421875 52.84375 118.753906 51.9375 121.058594 51.9375 C 121.132812 51.9375 121.226562 51.9375 121.355469 51.945312 C 121.695312 51.972656 121.953125 52.265625 121.925781 52.609375 C 121.90625 52.949219 121.601562 53.210938 121.269531 53.183594 L 121.058594 53.183594 C 119.085938 53.175781 116.914062 53.988281 114.609375 55.117188 C 114.515625 55.160156 114.425781 55.179688 114.332031 55.179688 C 114.101562 55.179688 113.878906 55.054688 113.777344 54.835938 " fill-opacity="1" fill-rule="nonzero"/><path fill="#5e17eb" d="M 81.023438 53.109375 C 77.886719 51.355469 72.75 50.941406 72.742188 50.949219 L 72.742188 50.953125 C 72.402344 50.925781 72.136719 50.628906 72.167969 50.285156 C 72.191406 49.941406 72.484375 49.683594 72.832031 49.710938 C 72.871094 49.722656 78.097656 50.078125 81.625 52.019531 C 84.945312 53.902344 92.398438 60.355469 99.171875 60.324219 C 99.402344 60.324219 99.632812 60.320312 99.875 60.308594 C 102.34375 60.136719 104.148438 59.449219 106.644531 58.230469 C 106.949219 58.082031 107.328125 58.207031 107.476562 58.511719 C 107.625 58.820312 107.496094 59.195312 107.191406 59.347656 C 104.664062 60.589844 102.636719 61.375 99.945312 61.546875 C 99.6875 61.554688 99.429688 61.570312 99.171875 61.570312 C 91.691406 61.539062 84.132812 54.800781 81.023438 53.109375 " fill-opacity="1" fill-rule="nonzero"/></svg>