<svg width="384" height="39" viewBox="0 0 384 39" fill="none" xmlns="http://www.w3.org/2000/svg">
<path d="M98.8135 10.0857C98.8135 10.0857 100.772 13.9451 101.631 18.0909C102.491 22.2368 101.1 29.518 112.017 35.2993C122.918 41.0753 136.392 36.3826 138.907 30.1118C142.058 22.2368 144.287 19.0753 150.121 16.1639C150.121 16.1639 145.662 16.3253 142.569 10.8305C140.704 7.51281 139.142 2.76802 131.991 1.91906C127.668 1.40865 125.756 4.92427 123.095 4.23677C120.433 3.54927 119.215 0.877396 115.282 0.99198C105.845 1.26802 106.194 12.1534 98.8135 10.0857Z" fill="white"/>
<path d="M100.043 11.0388C100.704 12.5336 101.751 15.1586 102.329 17.9451C102.485 18.6899 102.569 19.518 102.657 20.393C103.069 24.4711 103.636 30.0545 112.35 34.6743C117.871 37.5961 124.756 38.0232 130.772 35.8201C134.496 34.4555 137.293 32.2211 138.246 29.8409C140.954 23.0805 143.063 19.4399 147.996 16.5076C146.282 15.9555 143.866 14.5857 141.949 11.1795C141.72 10.7732 141.496 10.3461 141.261 9.90342C139.647 6.82009 137.819 3.3305 131.907 2.62738C129.813 2.37738 128.366 3.16384 126.964 3.92946C125.657 4.643 124.423 5.30967 122.918 4.92425C121.756 4.62217 120.855 3.99717 119.985 3.393C118.694 2.49196 117.459 1.643 115.303 1.7055C110.892 1.83571 108.813 4.40863 106.803 6.89821C105.053 9.07009 103.251 11.3045 100.043 11.0388ZM122.839 38.6378C118.944 38.6378 115.074 37.7263 111.683 35.9295C102.293 30.9607 101.662 24.6899 101.241 20.5388C101.152 19.7003 101.074 18.9086 100.933 18.2368C100.105 14.2263 98.1989 10.4503 98.178 10.4086C98.0478 10.1586 98.0843 9.85655 98.2614 9.6378C98.4384 9.41904 98.7353 9.3253 99.0061 9.40342C102.225 10.3045 103.678 8.50238 105.694 6.00759C107.699 3.52321 110.194 0.429462 115.261 0.283629C117.923 0.210711 119.438 1.27842 120.798 2.22634C121.6 2.78363 122.355 3.30967 123.272 3.54405C124.23 3.79405 125.142 3.29925 126.282 2.67946C127.73 1.893 129.532 0.908628 132.074 1.21592C138.735 2.00238 140.834 6.018 142.527 9.24196C142.746 9.66905 142.97 10.0857 143.188 10.4815C146.011 15.4972 149.938 15.4503 150.1 15.4503C150.433 15.4555 150.73 15.669 150.813 15.992C150.892 16.3149 150.741 16.6534 150.438 16.7993C144.673 19.6743 142.579 22.8565 139.563 30.3722C138.449 33.1586 135.423 35.6326 131.267 37.1586C128.563 38.1482 125.694 38.6378 122.839 38.6378Z" fill="#5E17EB"/>
<path d="M102.449 13.9086C102.449 13.9086 103.402 14.8149 104.913 15.2263C105.86 15.4763 107.022 15.5388 108.303 15.0701C111.652 13.8461 113.324 13.9243 116.288 15.4243C119.246 16.9243 119.439 17.518 122.209 17.518C124.975 17.518 126.261 15.6847 130.126 16.294C133.991 16.9034 137.36 19.5232 141.584 19.0753C141.584 19.0753 134.886 22.8461 130.449 23.1795C127.006 23.4399 119.178 25.617 113.642 22.0753C111.949 20.992 109.267 18.6951 107.897 17.669C104.798 15.3513 102.449 13.9086 102.449 13.9086Z" fill="#5E17EB"/>
<path d="M106.392 15.9347C106.954 16.3357 107.563 16.7784 108.204 17.2576C108.678 17.6118 109.303 18.1118 109.991 18.6638C111.319 19.7316 112.829 20.9399 113.923 21.643C118.235 24.4034 124.084 23.5493 127.959 22.9763C128.912 22.8409 129.73 22.7211 130.407 22.6691C133.293 22.4503 137.22 20.7055 139.496 19.5805C137.668 19.3878 135.991 18.742 134.345 18.117C132.886 17.5597 131.511 17.0336 130.043 16.8045C127.907 16.4607 126.6 16.9243 125.334 17.367C124.402 17.6951 123.438 18.0336 122.209 18.0336C119.97 18.0336 119.272 17.643 117.756 16.7993C117.298 16.544 116.756 16.2368 116.053 15.8826C113.23 14.4555 111.678 14.3878 108.48 15.5545C107.793 15.8045 107.095 15.9347 106.392 15.9347ZM121.657 24.5961C118.845 24.5961 115.892 24.1222 113.366 22.5076C112.225 21.7836 110.699 20.5545 109.345 19.4711C108.668 18.9243 108.053 18.4295 107.589 18.0857C106.022 16.9086 104.636 15.9555 103.662 15.3097C102.699 14.8513 102.126 14.3149 102.095 14.2836C101.902 14.1013 101.876 13.8097 102.037 13.5961C102.199 13.3878 102.491 13.3357 102.714 13.4711C102.725 13.4763 103.267 13.8097 104.162 14.4034C104.428 14.5232 104.725 14.6378 105.048 14.7263C106.079 15.0024 107.116 14.9555 108.126 14.5857C111.616 13.3149 113.418 13.393 116.522 14.9659C117.235 15.3253 117.787 15.6378 118.256 15.8982C119.699 16.7003 120.235 17.0024 122.209 17.0024C123.261 17.0024 124.105 16.7055 124.996 16.393C126.313 15.9295 127.813 15.4034 130.204 15.7836C131.777 16.0336 133.267 16.6013 134.714 17.1534C136.964 18.0128 139.089 18.8201 141.527 18.5597C141.772 18.544 142.001 18.6847 142.074 18.9191C142.152 19.1534 142.048 19.4034 141.834 19.5232C141.558 19.6795 134.991 23.3566 130.485 23.6951C129.845 23.742 129.037 23.8618 128.11 23.9972C126.277 24.268 124.011 24.5961 121.657 24.5961Z" fill="#5E17EB"/>
<path d="M117.501 23.6482C117.501 23.6482 121.438 21.4555 123.173 19.7836C124.912 18.1118 127.053 15.6066 128.579 13.3357C131.35 9.21072 137.142 5.68468 140.959 7.10655C146.282 9.08572 145.194 13.617 143.584 16.3357C141.975 19.0493 141.584 19.0753 140.23 20.1534C139.194 20.9868 136.949 22.4086 131.527 23.0388C126.642 23.6066 121.272 24.5857 117.501 23.6482Z" fill="white"/>
<path d="M118.964 23.393C121.845 23.7524 125.454 23.2888 128.964 22.8409C129.808 22.7316 130.647 22.6274 131.47 22.5284C135.329 22.0753 138.168 21.1482 139.912 19.7524C140.121 19.5805 140.313 19.4399 140.491 19.3045C141.386 18.6222 141.834 18.2784 143.142 16.0701C143.699 15.1326 144.912 12.7159 144.147 10.5545C143.683 9.24197 142.548 8.24718 140.777 7.58572C137.246 6.27843 131.647 9.68989 129.006 13.6222C127.558 15.7836 125.407 18.3461 123.532 20.1534C122.366 21.2784 120.287 22.5961 118.964 23.393ZM121.261 24.5545C119.86 24.5545 118.548 24.4399 117.376 24.1482C117.173 24.0961 117.022 23.9295 116.991 23.7159C116.964 23.5076 117.069 23.3045 117.251 23.2003C117.293 23.1795 121.147 21.018 122.813 19.4086C124.647 17.6482 126.741 15.1534 128.152 13.0493C131.011 8.78885 137.048 5.10135 141.136 6.62218C143.204 7.39302 144.543 8.60135 145.116 10.2107C146.027 12.7836 144.657 15.5336 144.027 16.5961C142.616 18.9763 142.084 19.3826 141.116 20.1274C140.944 20.2524 140.761 20.393 140.553 20.5597C138.636 22.0909 135.704 23.0701 131.589 23.5545C130.767 23.6482 129.933 23.7524 129.095 23.8618C126.438 24.2003 123.72 24.5545 121.261 24.5545Z" fill="#5E17EB"/>
<path d="M139.803 8.64824C139.803 8.64824 137.767 8.33574 135.787 9.27845L139.803 8.64824Z" fill="white"/>
<path d="M135.662 9.34092C135.621 9.268 135.652 9.18467 135.725 9.14821C136.933 8.57009 138.162 8.45551 138.954 8.45551C139.485 8.45551 139.819 8.50759 139.824 8.50759C139.902 8.52321 139.959 8.59613 139.944 8.67426C139.933 8.74717 139.855 8.80446 139.782 8.78884C139.782 8.78884 139.465 8.74196 138.954 8.74196C138.189 8.74196 137.001 8.85134 135.85 9.40863C135.829 9.41384 135.808 9.41905 135.787 9.41905C135.735 9.41905 135.683 9.393 135.662 9.34092Z" fill="#5E17EB"/>
<path d="M134.532 10.0857C134.532 10.0857 129.866 13.9763 127.897 17.2524C125.918 20.5232 122.918 22.2368 122.918 22.2368L134.532 10.0857Z" fill="white"/>
<path d="M122.793 22.3045C122.751 22.2368 122.777 22.1482 122.845 22.1118C122.845 22.1066 125.819 20.4086 127.772 17.1743C129.772 13.8722 134.438 9.98155 134.438 9.97634H134.444C134.501 9.92947 134.589 9.93467 134.641 9.99717C134.694 10.0597 134.683 10.1482 134.621 10.1951C134.621 10.2055 129.964 14.0857 128.016 17.3253C126.016 20.6274 122.996 22.3513 122.985 22.3618C122.964 22.3722 122.938 22.3774 122.918 22.3774C122.865 22.3774 122.813 22.3566 122.793 22.3045Z" fill="#5E17EB"/>
<path d="M131.678 23.0232C131.579 22.8461 131.642 22.6274 131.819 22.5336C135.027 20.768 136.933 18.4451 138.037 16.5597C139.147 14.6743 139.449 13.2628 139.449 13.2576C139.491 13.0649 139.688 12.9399 139.876 12.9816C140.074 13.0232 140.199 13.2159 140.157 13.4086C140.142 13.4555 138.845 19.4868 132.162 23.1639C132.11 23.1951 132.053 23.2107 131.991 23.2107C131.86 23.2107 131.741 23.143 131.678 23.0232Z" fill="#5E17EB"/>
<path d="M142.11 18.2107C142.043 18.0232 142.136 17.8201 142.329 17.7524C142.329 17.7524 143.517 17.3305 144.793 16.9086C144.98 16.8461 145.183 16.9451 145.246 17.1378C145.308 17.3253 145.204 17.5284 145.017 17.5909C143.751 18.0076 142.574 18.4295 142.569 18.4295C142.532 18.4451 142.49 18.4503 142.454 18.4503C142.303 18.4503 142.162 18.3565 142.11 18.2107Z" fill="#5E17EB"/>
<path d="M120.017 29.9816C119.819 29.9659 119.668 29.7889 119.689 29.5909C119.73 28.9972 119.751 28.3149 119.751 27.6482C119.751 26.0076 119.647 24.4607 119.647 24.4503V24.4555C119.631 24.2576 119.782 24.0857 119.985 24.0701C120.178 24.0545 120.355 24.2107 120.366 24.4087C120.366 24.4087 120.475 25.9764 120.475 27.6482C120.475 28.3305 120.454 29.0284 120.407 29.6482C120.392 29.8357 120.235 29.9816 120.048 29.9816C120.037 29.9816 120.027 29.9816 120.017 29.9816Z" fill="#5E17EB"/>
<path d="M114.215 28.2159C114.022 28.1638 113.902 27.9711 113.949 27.7784C114.6 25.0388 115.376 23.6795 115.392 23.6586C115.491 23.4868 115.709 23.4243 115.881 23.5232C116.053 23.6222 116.116 23.8409 116.017 24.018C116.022 24.0232 115.287 25.2784 114.652 27.9451C114.61 28.1118 114.465 28.2211 114.298 28.2211C114.272 28.2211 114.246 28.2211 114.215 28.2159Z" fill="#5E17EB"/>
<path d="M125.657 28.617C125.496 26.2732 124.334 24.1586 124.329 24.1586C124.23 23.9868 124.293 23.768 124.465 23.6691C124.642 23.5753 124.86 23.6378 124.959 23.8097C124.965 23.8357 126.194 26.018 126.376 28.5649C126.386 28.768 126.241 28.9399 126.043 28.9555H126.017C125.829 28.9555 125.668 28.8097 125.657 28.617Z" fill="#5E17EB"/>
<path d="M130.871 28.643C130.636 26.9243 129.866 25.7316 129.147 24.9555C128.428 24.1795 127.793 23.8461 127.793 23.8461C127.616 23.7576 127.548 23.5388 127.642 23.3618C127.735 23.1847 127.954 23.117 128.131 23.2107C128.168 23.2316 131.058 24.7524 131.584 28.5441C131.61 28.742 131.475 28.9243 131.277 28.9503C131.261 28.9503 131.246 28.9503 131.23 28.9503C131.048 28.9503 130.897 28.8201 130.871 28.643Z" fill="#5E17EB"/>
<path d="M133.136 25.9191C132.907 25.1326 132.392 24.5128 131.923 24.0909C131.454 23.6691 131.058 23.4607 131.058 23.4607C130.881 23.367 130.819 23.1482 130.913 22.9764C131.001 22.7993 131.22 22.7316 131.397 22.8253C131.428 22.8461 133.246 23.7889 133.829 25.7159C133.886 25.9034 133.777 26.1014 133.584 26.1586C133.548 26.1691 133.517 26.1743 133.48 26.1743C133.324 26.1743 133.183 26.0753 133.136 25.9191Z" fill="#5E17EB"/>
<path d="M110.355 25.7159C110.178 25.6222 110.11 25.4034 110.204 25.2264C110.938 23.8357 112.98 21.5909 112.991 21.5753C113.126 21.4295 113.35 21.4191 113.501 21.5545C113.647 21.6847 113.662 21.9139 113.527 22.0597C113.522 22.0701 111.48 24.3305 110.845 25.5649C110.777 25.6847 110.652 25.7576 110.522 25.7576C110.464 25.7576 110.412 25.742 110.355 25.7159Z" fill="#5E17EB"/>
<path d="M108.444 22.0857C108.293 21.9555 108.272 21.7316 108.407 21.5753C109.037 20.867 110.892 19.8982 110.907 19.8774C111.084 19.7784 111.303 19.8461 111.397 20.0232C111.49 20.1951 111.423 20.4138 111.251 20.5076C111.251 20.5128 109.35 21.5545 108.954 22.0441C108.881 22.1274 108.782 22.1691 108.678 22.1691C108.595 22.1691 108.511 22.143 108.444 22.0857Z" fill="#5E17EB"/>
<path d="M114.006 15.0024C113.147 14.2159 112.902 13.1638 112.902 12.2263C112.907 10.7836 113.465 9.53883 113.475 9.518H113.48C113.558 9.33571 113.772 9.25758 113.954 9.33571C114.136 9.41904 114.215 9.62737 114.136 9.80967C114.142 9.81488 113.616 10.9763 113.621 12.2263C113.626 13.0545 113.829 13.867 114.496 14.4659C114.642 14.6013 114.652 14.8305 114.517 14.9763C114.444 15.0545 114.35 15.0961 114.251 15.0961C114.163 15.0961 114.079 15.0649 114.006 15.0024Z" fill="#5E17EB"/>
<path d="M110.996 14.5232C109.668 13.9243 109.485 12.6222 109.491 11.9816C109.491 11.9451 109.496 11.9139 109.496 11.8878C109.501 11.6899 109.668 11.5337 109.871 11.5441C110.069 11.5493 110.22 11.7159 110.215 11.9139C110.215 11.9399 110.215 11.9607 110.215 11.9816C110.22 12.5284 110.355 13.4503 111.293 13.8618C111.475 13.9451 111.553 14.1587 111.475 14.3409C111.412 14.4712 111.282 14.5545 111.142 14.5545C111.095 14.5545 111.043 14.5441 110.996 14.5232Z" fill="#5E17EB"/>
<path d="M119.079 17.3201C117.074 16.5753 116.548 14.9243 116.569 13.6586C116.569 12.5336 116.923 11.6378 116.928 11.617H116.933C117.001 11.4295 117.209 11.3409 117.397 11.4138C117.584 11.4815 117.673 11.6951 117.6 11.8774C117.605 11.8826 117.287 12.6847 117.287 13.6586C117.308 14.7784 117.642 15.992 119.334 16.643C119.522 16.7107 119.616 16.9243 119.543 17.1118C119.491 17.2524 119.35 17.3409 119.204 17.3409C119.168 17.3409 119.121 17.3357 119.079 17.3201Z" fill="#5E17EB"/>
<path d="M123.517 17.2888C123.465 17.0961 123.584 16.8982 123.777 16.8513C126.105 16.268 126.418 14.3045 126.428 13.117C126.428 12.6378 126.376 12.3305 126.376 12.3305C126.34 12.1378 126.47 11.9503 126.668 11.9138C126.86 11.8774 127.048 12.0076 127.084 12.2003C127.09 12.2211 127.152 12.5805 127.152 13.117C127.173 14.393 126.73 16.8565 123.954 17.5493C123.923 17.5597 123.892 17.5649 123.86 17.5649C123.699 17.5649 123.553 17.4555 123.517 17.2888Z" fill="#5E17EB"/>
<path d="M121.527 17.8513C121.334 17.794 121.225 17.5909 121.282 17.4034C121.418 16.9503 121.47 16.4451 121.465 15.9815C121.47 15.0492 121.277 14.2784 121.277 14.2784C121.23 14.0857 121.35 13.8878 121.543 13.8409C121.735 13.794 121.928 13.9138 121.975 14.1065C121.98 14.1222 122.183 14.9555 122.188 15.9815C122.183 16.4972 122.136 17.0597 121.975 17.6065C121.928 17.7628 121.782 17.867 121.626 17.867C121.595 17.867 121.558 17.8617 121.527 17.8513Z" fill="#5E17EB"/>
<path d="M110.345 5.42426C110.267 5.34092 110.277 5.21071 110.36 5.13259C111.178 4.40342 112.308 3.5753 113.517 3.3253C113.626 3.29926 113.74 3.37217 113.761 3.48155C113.782 3.59613 113.709 3.70551 113.6 3.72634C112.522 3.94509 111.423 4.73676 110.636 5.43988V5.44509C110.6 5.47634 110.548 5.49197 110.501 5.49197C110.444 5.49197 110.386 5.47113 110.345 5.42426Z" fill="#5E17EB"/>
<path d="M128.866 4.75759C128.813 4.65342 128.855 4.53363 128.954 4.48155C129.741 4.10134 130.511 3.79926 131.272 3.79926C131.298 3.79926 131.329 3.79926 131.371 3.80446C131.485 3.81488 131.569 3.90863 131.558 4.02321C131.553 4.1378 131.454 4.22113 131.345 4.21071H131.272C130.621 4.21071 129.902 4.48155 129.136 4.85134C129.11 4.86696 129.079 4.87217 129.048 4.87217C128.97 4.87217 128.897 4.8305 128.866 4.75759Z" fill="#5E17EB"/>
<path d="M118.022 4.18991C116.985 3.60657 115.288 3.47116 115.282 3.47116V3.47636C115.168 3.46595 115.084 3.36699 115.09 3.25241C115.1 3.13782 115.199 3.05449 115.314 3.06491C115.324 3.07011 117.053 3.1847 118.22 3.83053C119.324 4.45032 121.788 6.58574 124.032 6.57532C124.105 6.57532 124.183 6.57532 124.261 6.57011C125.079 6.51282 125.678 6.28886 126.506 5.88261C126.605 5.83574 126.73 5.8774 126.777 5.97636C126.829 6.08053 126.782 6.20032 126.683 6.25241C125.85 6.66386 125.178 6.92428 124.288 6.98157C124.199 6.98157 124.116 6.98678 124.032 6.98678C121.553 6.97636 119.053 4.7472 118.022 4.18991Z" fill="#5E17EB"/>
<path d="M10.0976 33.1912C16.9466 32.9412 18.3997 28.5923 18.3997 23.2433C18.3997 22.5454 18.3997 21.9412 18.5976 21.6444C19.1497 20.6912 19.6497 21.3944 19.4466 19.4933C19.3476 18.7954 18.9986 17.9933 18.0507 17.9412C15.6497 17.4933 10.9466 17.5454 11.0976 19.7433C10.8476 22.9412 13.3997 20.8423 13.4986 22.7954V24.5923C13.4986 26.8944 11.3007 28.5923 8.99864 26.8944C6.8476 25.6912 6.99864 18.3423 6.99864 14.9412C6.99864 12.7433 7.49864 6.89435 9.8476 6.44123C11.3476 5.74331 13.3997 7.64435 14.0507 10.3423C14.3007 11.9412 16.0976 12.3944 17.2486 11.5454C19.4986 9.84227 18.1497 4.34227 14.6966 2.2954C11.7486 0.493314 7.05072 -0.00668764 4.0976 3.19123C0.498638 7.14435 -0.402403 15.1912 0.149679 20.8423C0.399679 25.0923 1.05072 27.2433 3.14968 30.0454C4.39968 31.6912 6.8476 33.3944 10.0976 33.1912Z" fill="white"/>
<path d="M33.4986 33.2954C42.8475 32.8422 44.0975 21.8943 44.1496 14.6443C44.1496 10.7433 42.9465 7.24328 40.5506 3.84224C37.3475 -0.954635 26.9986 -2.5588 24.0975 6.79537C22.3475 12.5922 21.4465 21.3943 24.4986 27.4412C26.2486 31.3422 29.3475 33.2954 33.4986 33.2954ZM32.1496 24.6443C31.4986 22.2433 30.6965 14.3422 32.4465 6.79537C34.0506 1.99328 37.9986 6.74328 38.5506 10.9412C39.3006 15.7433 37.9986 28.1443 35.0975 28.1443C33.6965 28.2954 32.8006 26.9933 32.1496 24.6443Z" fill="white"/>
<path d="M58.1485 33.2954C67.4974 32.8422 68.7474 21.8943 68.7995 14.6443C68.7995 10.7433 67.5964 7.24328 65.2005 3.84224C61.9974 -0.954635 51.6485 -2.5588 48.7474 6.79537C46.9974 12.5922 46.0964 21.3943 49.1485 27.4412C50.8985 31.3422 53.9974 33.2954 58.1485 33.2954ZM56.7995 24.6443C56.1485 22.2433 55.3464 14.3422 57.0964 6.79537C58.7005 1.99328 62.6485 6.74328 63.2005 10.9412C63.9505 15.7433 62.6485 28.1443 59.7474 28.1443C58.3464 28.2954 57.4505 26.9933 56.7995 24.6443Z" fill="white"/>
<path d="M77.4965 33.5923C84.1006 33.1912 90.5486 26.1912 90.7465 17.2433C91.1475 9.34226 86.3975 1.9933 78.0486 0.993298C73.3975 0.592257 71.9496 1.64434 71.8506 6.44122C71.7465 12.8423 71.8506 28.2954 72.1006 29.5454C72.6475 32.4933 74.5486 33.9412 77.4965 33.5923ZM78.8975 26.5923V7.09226C78.8975 4.59226 80.1006 5.04538 80.9965 6.29538C84.2986 10.8943 84.5486 17.2954 83.9965 22.6912C83.6006 25.2954 81.6475 29.0923 79.7986 28.4933C78.8975 28.1443 78.8975 27.3943 78.8975 26.5923Z" fill="white"/>
<path d="M167.229 34.3976C168.782 34.1997 169.578 33.2517 169.828 31.1997C169.933 27.6528 169.782 18.1059 169.979 12.2101C169.979 10.757 170.078 7.26217 170.183 6.71008C170.328 5.46008 171.032 5.26217 172.282 5.30904C173.578 5.30904 175.131 5.01217 175.276 3.91321C175.526 1.96008 174.776 1.46008 173.229 1.06425C168.631 0.762166 164.735 0.715292 160.287 1.01217C159.183 1.11113 158.136 1.41321 157.933 2.61113C157.735 3.86113 158.537 5.05904 160.683 5.05904C162.735 5.36113 162.584 6.46008 162.636 8.908V20.3559C162.683 23.1059 162.584 32.1528 163.381 33.2986C164.032 34.1476 165.183 34.6007 167.229 34.3976Z" fill="white"/>
<path d="M189.318 34.2518C198.667 33.7986 199.912 22.8559 199.964 15.6059C199.964 11.7101 198.766 8.21009 196.365 4.80905C193.167 0.0121701 182.823 -1.58679 179.922 7.76217C178.172 13.559 177.271 22.3559 180.323 28.4028C182.073 32.2986 185.172 34.2518 189.318 34.2518ZM187.969 25.6007C187.318 23.2049 186.521 15.309 188.271 7.76217C189.87 2.96009 193.818 7.71009 194.365 11.908C195.115 16.7049 193.818 29.1007 190.917 29.1007C189.516 29.2518 188.62 27.9497 187.969 25.6007Z" fill="white"/>
<path d="M224.192 34.1476C226.994 34.7986 229.791 34.3976 232.489 33.1476C237.338 30.8507 236.442 23.5018 233.942 21.6059C231.89 20.1528 232.39 19.507 233.343 17.6059C235.442 14.257 235.64 11.757 234.588 8.26219C233.291 3.80906 228.994 0.913226 224.343 1.16323C220.698 1.36114 219.395 2.61114 219.349 6.11114C218.645 18.0539 219.099 20.6528 219.297 28.4028C219.547 31.7518 220.948 33.3976 224.192 34.1476ZM225.442 6.80906C225.895 4.9601 228.145 7.61114 228.692 11.257C229.041 13.9601 228.744 16.9549 226.494 18.908C224.547 20.3559 225.093 7.90802 225.442 6.80906ZM226.145 28.9497C225.547 26.9028 224.895 22.9028 227.593 23.8559C229.244 24.6528 229.89 27.6997 228.395 29.3039C227.645 30.1997 226.692 30.0486 226.145 28.9497Z" fill="white"/>
<path d="M245.532 34.1007C248.433 34.2986 251.282 33.8507 253.23 33.1007C254.027 32.6476 255.428 32.3507 254.928 31.1007C254.626 30.1007 253.881 29.7518 252.881 29.6997C252.23 29.6997 249.183 29.9028 248.48 29.6997C247.131 29.1997 246.48 28.1997 246.683 26.1007C246.782 24.0018 247.23 23.6528 249.131 23.5018C250.381 23.4028 251.631 23.5018 252.829 23.2518C255.126 22.2049 253.881 20.0538 252.777 20.0538C250.631 19.507 246.084 20.9549 246.032 16.7049C245.98 13.908 246.084 12.1059 246.183 9.25696C246.282 4.76217 246.631 4.76217 251.178 4.46009C252.23 4.46009 253.48 4.46009 253.631 3.21009C253.579 0.465296 246.183 1.16321 243.433 1.36113C240.433 1.51217 239.735 2.11113 239.282 5.26217C239.183 7.408 238.886 19.6059 239.032 23.8038C239.084 24.9028 238.834 27.6528 239.235 29.9028C239.834 33.3976 241.985 33.8976 245.532 34.1007Z" fill="white"/>
<path d="M278.862 34.1476C280.909 34.1476 282.159 32.5486 282.56 29.6997C282.659 23.2049 282.409 23.7518 282.409 17.658C282.409 17.3038 282.607 17.2049 282.758 17.5538L283.159 18.4549C284.956 22.6528 286.508 27.8507 287.508 30.6528C288.258 32.5486 289.508 34.0486 290.904 33.8507C294.055 33.2986 295.154 29.4497 295.003 24.9549C294.805 18.3038 295.101 12.3559 294.805 5.71009C294.805 3.41322 294.357 0.762173 292.107 1.06426C290.857 1.41321 290.206 2.06426 290.154 3.26217C290.154 3.91322 290.206 16.7049 290.607 22.7518C290.607 25.6007 290.154 25.5538 289.055 21.1059C287.607 15.908 286.206 10.559 284.659 5.30905C283.758 2.41322 281.508 1.01217 278.513 1.31426C275.112 1.86113 274.211 5.91322 274.211 7.71009C274.06 13.8559 273.961 20.007 274.06 26.0538C274.06 27.5018 274.164 28.7518 274.31 30.2518C274.711 32.8507 276.513 34.2986 278.862 34.1476Z" fill="white"/>
<path d="M315.54 33.6476C316.988 34.3976 318.389 34.5486 319.587 33.6476C320.79 32.5486 320.54 31.2986 320.191 30.0018C319.488 25.7049 318.639 21.3559 317.988 17.2049C316.941 12.158 316.092 6.46009 313.243 2.96009C309.441 -0.284701 303.795 1.71009 303.144 7.01217C302.998 7.46009 299.196 21.3559 298.399 27.4497C298.149 28.9497 297.946 30.2986 298.045 31.9028C298.196 34.8507 302.597 34.8976 303.644 32.1007C304.045 31.0486 304.295 30.0486 304.545 28.8507C305.196 26.1007 305.446 25.8507 308.394 25.7049C309.243 25.6528 311.941 25.1528 312.644 27.9028C312.691 30.1007 313.592 32.8507 315.54 33.6476ZM306.144 20.5538C306.092 19.7049 307.342 12.7101 308.045 9.36113C308.493 7.46009 309.394 7.21009 309.441 8.65801C310.092 12.059 310.644 15.6059 311.243 18.908C311.243 19.9028 311.441 21.0538 310.441 21.5538C309.342 22.2049 308.092 22.3038 306.842 21.9549C306.342 21.8559 306.144 21.2049 306.144 20.5538Z" fill="white"/>
<path d="M327.081 34.2517C329.878 34.6476 330.68 32.6476 330.727 30.1528C330.727 28.2517 331.68 28.3038 332.977 29.4028C334.279 30.7517 337.378 35.1007 339.576 33.6997C340.675 33.1007 341.227 31.4497 340.925 30.3507C340.774 28.6997 338.128 25.9549 336.227 24.0538C332.977 20.9549 334.326 21.1059 336.128 18.007C337.477 15.908 341.972 9.25696 342.576 4.96008C342.925 2.66321 339.326 0.361123 337.524 2.26216C335.727 4.51216 331.529 16.559 330.779 16.559C330.279 16.658 330.727 9.658 330.727 8.26216C330.977 6.01216 331.279 2.36112 330.128 1.71008C328.68 0.861124 326.581 0.512165 325.18 1.41321C324.232 2.01216 323.93 2.56425 323.883 4.76216C323.633 12.007 323.633 21.757 323.482 29.1007C323.43 31.7986 323.982 34.1997 327.081 34.2517Z" fill="white"/>
<path d="M352.115 34.1007C355.016 34.2986 357.865 33.8507 359.813 33.1007C360.61 32.6476 362.011 32.3507 361.511 31.1007C361.209 30.1007 360.464 29.7518 359.464 29.6997C358.813 29.6997 355.766 29.9028 355.063 29.6997C353.714 29.1997 353.063 28.1997 353.266 26.1007C353.365 24.0018 353.813 23.6528 355.714 23.5018C356.964 23.4028 358.214 23.5018 359.412 23.2518C361.709 22.2049 360.464 20.0538 359.36 20.0538C357.214 19.507 352.667 20.9549 352.615 16.7049C352.563 13.908 352.667 12.1059 352.766 9.25696C352.865 4.76217 353.214 4.76217 357.761 4.46009C358.813 4.46009 360.063 4.46009 360.214 3.21009C360.162 0.465296 352.766 1.16321 350.016 1.36113C347.016 1.51217 346.318 2.11113 345.865 5.26217C345.766 7.408 345.469 19.6059 345.615 23.8038C345.667 24.9028 345.417 27.6528 345.818 29.9028C346.417 33.3976 348.568 33.8976 352.115 34.1007Z" fill="white"/>
<path d="M370.304 34.5486C376.903 34.1476 383.346 27.1528 383.549 18.2049C383.95 10.3091 379.2 2.96009 370.851 1.96009C366.205 1.56426 364.758 2.61114 364.653 7.40801C364.554 13.8091 364.653 29.2518 364.903 30.5018C365.455 33.4497 367.356 34.8976 370.304 34.5486ZM371.705 27.5538V8.05905C371.705 5.55905 372.903 6.01218 373.804 7.26218C377.101 11.8559 377.351 18.257 376.799 23.6528C376.403 26.2518 374.45 30.0486 372.601 29.4497C371.705 29.1007 371.705 28.3507 371.705 27.5538Z" fill="white"/>
</svg>
