<svg width="384" height="40" viewBox="0 0 384 40" fill="none" xmlns="http://www.w3.org/2000/svg">
<path d="M98.8135 10.6928C98.8135 10.6928 100.772 14.5522 101.631 18.698C102.491 22.8438 101.1 30.1251 112.017 35.9063C122.918 41.6824 136.392 36.9897 138.907 30.7188C142.058 22.8438 144.287 19.6824 150.121 16.7709C150.121 16.7709 145.662 16.9324 142.569 11.4376C140.704 8.11987 139.142 3.37508 131.991 2.52612C127.668 2.0157 125.756 5.53133 123.095 4.84383C120.433 4.15633 119.215 1.48445 115.282 1.59904C105.845 1.87508 106.194 12.7605 98.8135 10.6928Z" fill="white"/>
<path d="M100.043 11.6459C100.704 13.1407 101.751 15.7657 102.329 18.5522C102.485 19.297 102.569 20.1251 102.657 21.0001C103.069 25.0782 103.636 30.6615 112.35 35.2813C117.871 38.2032 124.756 38.6303 130.772 36.4272C134.496 35.0626 137.293 32.8282 138.246 30.448C140.954 23.6876 143.063 20.047 147.996 17.1147C146.282 16.5626 143.866 15.1928 141.949 11.7865C141.72 11.3803 141.496 10.9532 141.261 10.5105C139.647 7.42717 137.819 3.93759 131.907 3.23446C129.813 2.98446 128.366 3.77092 126.964 4.53655C125.657 5.25009 124.423 5.91676 122.918 5.53134C121.756 5.22926 120.855 4.60426 119.985 4.00009C118.694 3.09905 117.459 2.25009 115.303 2.31259C110.892 2.4428 108.813 5.01571 106.803 7.5053C105.053 9.67717 103.251 11.9115 100.043 11.6459ZM122.839 39.2449C118.944 39.2449 115.074 38.3334 111.683 36.5365C102.293 31.5678 101.662 25.297 101.241 21.1459C101.152 20.3074 101.074 19.5157 100.933 18.8438C100.105 14.8334 98.1989 11.0574 98.178 11.0157C98.0478 10.7657 98.0843 10.4636 98.2614 10.2449C98.4384 10.0261 98.7353 9.93238 99.0061 10.0105C102.225 10.9115 103.678 9.10946 105.694 6.61467C107.699 4.1303 110.194 1.03655 115.261 0.890715C117.923 0.817798 119.438 1.88551 120.798 2.83342C121.6 3.39072 122.355 3.91676 123.272 4.15113C124.23 4.40113 125.142 3.90634 126.282 3.28655C127.73 2.50009 129.532 1.51571 132.074 1.82301C138.735 2.60946 140.834 6.62509 142.527 9.84905C142.746 10.2761 142.97 10.6928 143.188 11.0886C146.011 16.1043 149.938 16.0574 150.1 16.0574C150.433 16.0626 150.73 16.2761 150.813 16.599C150.892 16.922 150.741 17.2605 150.438 17.4063C144.673 20.2813 142.579 23.4636 139.563 30.9793C138.449 33.7657 135.423 36.2397 131.267 37.7657C128.563 38.7553 125.694 39.2449 122.839 39.2449Z" fill="#5E17EB"/>
<path d="M102.449 14.5157C102.449 14.5157 103.402 15.422 104.913 15.8334C105.86 16.0834 107.022 16.1459 108.303 15.6772C111.652 14.4532 113.324 14.5313 116.288 16.0313C119.246 17.5313 119.439 18.1251 122.209 18.1251C124.975 18.1251 126.261 16.2918 130.126 16.9011C133.991 17.5105 137.36 20.1303 141.584 19.6824C141.584 19.6824 134.886 23.4532 130.449 23.7866C127.006 24.047 119.178 26.2241 113.642 22.6824C111.949 21.5991 109.267 19.3022 107.897 18.2761C104.798 15.9584 102.449 14.5157 102.449 14.5157Z" fill="#5E17EB"/>
<path d="M106.392 16.5418C106.954 16.9428 107.563 17.3855 108.204 17.8647C108.678 18.2188 109.303 18.7188 109.991 19.2709C111.319 20.3386 112.829 21.547 113.923 22.2501C118.235 25.0105 124.084 24.1563 127.959 23.5834C128.912 23.448 129.73 23.3282 130.407 23.2761C133.293 23.0574 137.22 21.3126 139.496 20.1876C137.668 19.9949 135.991 19.3491 134.345 18.7241C132.886 18.1668 131.511 17.6407 130.043 17.4116C127.907 17.0678 126.6 17.5313 125.334 17.9741C124.402 18.3022 123.438 18.6407 122.209 18.6407C119.97 18.6407 119.272 18.2501 117.756 17.4063C117.298 17.1511 116.756 16.8438 116.053 16.4897C113.23 15.0626 111.678 14.9949 108.48 16.1616C107.793 16.4116 107.095 16.5418 106.392 16.5418ZM121.657 25.2032C118.845 25.2032 115.892 24.7293 113.366 23.1147C112.225 22.3907 110.699 21.1616 109.345 20.0782C108.668 19.5313 108.053 19.0366 107.589 18.6928C106.022 17.5157 104.636 16.5626 103.662 15.9168C102.699 15.4584 102.126 14.922 102.095 14.8907C101.902 14.7084 101.876 14.4168 102.037 14.2032C102.199 13.9949 102.491 13.9428 102.714 14.0782C102.725 14.0834 103.267 14.4168 104.162 15.0105C104.428 15.1303 104.725 15.2449 105.048 15.3334C106.079 15.6095 107.116 15.5626 108.126 15.1928C111.616 13.922 113.418 14.0001 116.522 15.573C117.235 15.9324 117.787 16.2449 118.256 16.5053C119.699 17.3074 120.235 17.6095 122.209 17.6095C123.261 17.6095 124.105 17.3126 124.996 17.0001C126.313 16.5366 127.813 16.0105 130.204 16.3907C131.777 16.6407 133.267 17.2084 134.714 17.7605C136.964 18.6199 139.089 19.4272 141.527 19.1668C141.772 19.1511 142.001 19.2918 142.074 19.5261C142.152 19.7605 142.048 20.0105 141.834 20.1303C141.558 20.2866 134.991 23.9636 130.485 24.3022C129.845 24.3491 129.037 24.4688 128.11 24.6043C126.277 24.8751 124.011 25.2032 121.657 25.2032Z" fill="#5E17EB"/>
<path d="M117.501 24.2553C117.501 24.2553 121.438 22.0626 123.173 20.3907C124.912 18.7188 127.053 16.2136 128.579 13.9428C131.35 9.81781 137.142 6.29176 140.959 7.71364C146.282 9.6928 145.194 14.2241 143.584 16.9428C141.975 19.6563 141.584 19.6824 140.23 20.7605C139.194 21.5938 136.949 23.0157 131.527 23.6459C126.642 24.2136 121.272 25.1928 117.501 24.2553Z" fill="white"/>
<path d="M118.964 24.0001C121.845 24.3595 125.454 23.8959 128.964 23.448C129.808 23.3386 130.647 23.2345 131.47 23.1355C135.329 22.6824 138.168 21.7553 139.912 20.3595C140.121 20.1876 140.313 20.047 140.491 19.9116C141.386 19.2293 141.834 18.8855 143.142 16.6772C143.699 15.7397 144.912 13.323 144.147 11.1616C143.683 9.84906 142.548 8.85427 140.777 8.19281C137.246 6.88552 131.647 10.297 129.006 14.2293C127.558 16.3907 125.407 18.9532 123.532 20.7605C122.366 21.8855 120.287 23.2032 118.964 24.0001ZM121.261 25.1616C119.86 25.1616 118.548 25.047 117.376 24.7553C117.173 24.7032 117.022 24.5366 116.991 24.323C116.964 24.1147 117.069 23.9116 117.251 23.8074C117.293 23.7866 121.147 21.6251 122.813 20.0157C124.647 18.2553 126.741 15.7605 128.152 13.6564C131.011 9.39593 137.048 5.70843 141.136 7.22927C143.204 8.0001 144.543 9.20844 145.116 10.8178C146.027 13.3907 144.657 16.1407 144.027 17.2032C142.616 19.5834 142.084 19.9897 141.116 20.7345C140.944 20.8595 140.761 21.0001 140.553 21.1668C138.636 22.698 135.704 23.6772 131.589 24.1616C130.767 24.2553 129.933 24.3595 129.095 24.4689C126.438 24.8074 123.72 25.1616 121.261 25.1616Z" fill="#5E17EB"/>
<path d="M139.803 9.2553C139.803 9.2553 137.767 8.9428 135.787 9.8855L139.803 9.2553Z" fill="white"/>
<path d="M135.662 9.94801C135.621 9.87509 135.652 9.79176 135.725 9.7553C136.933 9.17717 138.162 9.06259 138.954 9.06259C139.485 9.06259 139.819 9.11467 139.824 9.11467C139.902 9.1303 139.959 9.20322 139.944 9.28134C139.933 9.35426 139.855 9.41155 139.782 9.39592C139.782 9.39592 139.465 9.34905 138.954 9.34905C138.189 9.34905 137.001 9.45842 135.85 10.0157C135.829 10.0209 135.808 10.0261 135.787 10.0261C135.735 10.0261 135.683 10.0001 135.662 9.94801Z" fill="#5E17EB"/>
<path d="M134.532 10.6928C134.532 10.6928 129.866 14.5834 127.897 17.8595C125.918 21.1303 122.918 22.8439 122.918 22.8439L134.532 10.6928Z" fill="white"/>
<path d="M122.793 22.9116C122.751 22.8438 122.777 22.7553 122.845 22.7188C122.845 22.7136 125.819 21.0157 127.772 17.7813C129.772 14.4793 134.438 10.5886 134.438 10.5834H134.444C134.501 10.5366 134.589 10.5418 134.641 10.6043C134.694 10.6668 134.683 10.7553 134.621 10.8022C134.621 10.8126 129.964 14.6928 128.016 17.9324C126.016 21.2345 122.996 22.9584 122.985 22.9688C122.964 22.9793 122.938 22.9845 122.918 22.9845C122.865 22.9845 122.813 22.9636 122.793 22.9116Z" fill="#5E17EB"/>
<path d="M131.678 23.6303C131.579 23.4532 131.642 23.2345 131.819 23.1407C135.027 21.3751 136.933 19.0522 138.037 17.1668C139.147 15.2814 139.449 13.8699 139.449 13.8647C139.491 13.672 139.688 13.547 139.876 13.5886C140.074 13.6303 140.199 13.823 140.157 14.0157C140.142 14.0626 138.845 20.0939 132.162 23.7709C132.11 23.8022 132.053 23.8178 131.991 23.8178C131.86 23.8178 131.741 23.7501 131.678 23.6303Z" fill="#5E17EB"/>
<path d="M142.11 18.8178C142.043 18.6303 142.136 18.4272 142.329 18.3595C142.329 18.3595 143.517 17.9376 144.793 17.5157C144.98 17.4532 145.183 17.5522 145.246 17.7449C145.308 17.9324 145.204 18.1355 145.017 18.198C143.751 18.6147 142.574 19.0365 142.569 19.0365C142.532 19.0522 142.49 19.0574 142.454 19.0574C142.303 19.0574 142.162 18.9636 142.11 18.8178Z" fill="#5E17EB"/>
<path d="M120.017 30.5886C119.819 30.573 119.668 30.3959 119.689 30.198C119.73 29.6042 119.751 28.922 119.751 28.2553C119.751 26.6147 119.647 25.0678 119.647 25.0574V25.0626C119.631 24.8647 119.782 24.6928 119.985 24.6772C120.178 24.6615 120.355 24.8178 120.366 25.0157C120.366 25.0157 120.475 26.5834 120.475 28.2553C120.475 28.9376 120.454 29.6355 120.407 30.2553C120.392 30.4428 120.235 30.5886 120.048 30.5886C120.037 30.5886 120.027 30.5886 120.017 30.5886Z" fill="#5E17EB"/>
<path d="M114.215 28.823C114.022 28.7709 113.902 28.5782 113.949 28.3855C114.6 25.6459 115.376 24.2866 115.392 24.2657C115.491 24.0938 115.709 24.0313 115.881 24.1303C116.053 24.2293 116.116 24.448 116.017 24.6251C116.022 24.6303 115.287 25.8855 114.652 28.5522C114.61 28.7188 114.465 28.8282 114.298 28.8282C114.272 28.8282 114.246 28.8282 114.215 28.823Z" fill="#5E17EB"/>
<path d="M125.657 29.2241C125.496 26.8803 124.334 24.7657 124.329 24.7657C124.23 24.5939 124.293 24.3751 124.465 24.2762C124.642 24.1824 124.86 24.2449 124.959 24.4168C124.965 24.4428 126.194 26.6251 126.376 29.172C126.386 29.3751 126.241 29.547 126.043 29.5626H126.017C125.829 29.5626 125.668 29.4168 125.657 29.2241Z" fill="#5E17EB"/>
<path d="M130.871 29.2501C130.636 27.5313 129.866 26.3386 129.147 25.5626C128.428 24.7866 127.793 24.4532 127.793 24.4532C127.616 24.3647 127.548 24.1459 127.642 23.9688C127.735 23.7918 127.954 23.7241 128.131 23.8178C128.168 23.8386 131.058 25.3595 131.584 29.1511C131.61 29.3491 131.475 29.5313 131.277 29.5574C131.261 29.5574 131.246 29.5574 131.23 29.5574C131.048 29.5574 130.897 29.4272 130.871 29.2501Z" fill="#5E17EB"/>
<path d="M133.136 26.5261C132.907 25.7397 132.392 25.1199 131.923 24.698C131.454 24.2761 131.058 24.0678 131.058 24.0678C130.881 23.9741 130.819 23.7553 130.913 23.5834C131.001 23.4064 131.22 23.3386 131.397 23.4324C131.428 23.4532 133.246 24.3959 133.829 26.323C133.886 26.5105 133.777 26.7084 133.584 26.7657C133.548 26.7761 133.517 26.7814 133.48 26.7814C133.324 26.7814 133.183 26.6824 133.136 26.5261Z" fill="#5E17EB"/>
<path d="M110.355 26.323C110.178 26.2292 110.11 26.0105 110.204 25.8334C110.938 24.4428 112.98 22.198 112.991 22.1824C113.126 22.0365 113.35 22.0261 113.501 22.1615C113.647 22.2917 113.662 22.5209 113.527 22.6667C113.522 22.6772 111.48 24.9376 110.845 26.172C110.777 26.2917 110.652 26.3647 110.522 26.3647C110.464 26.3647 110.412 26.349 110.355 26.323Z" fill="#5E17EB"/>
<path d="M108.444 22.6928C108.293 22.5626 108.272 22.3386 108.407 22.1824C109.037 21.4741 110.892 20.5053 110.907 20.4845C111.084 20.3855 111.303 20.4532 111.397 20.6303C111.49 20.8022 111.423 21.0209 111.251 21.1147C111.251 21.1199 109.35 22.1616 108.954 22.6511C108.881 22.7345 108.782 22.7761 108.678 22.7761C108.595 22.7761 108.511 22.7501 108.444 22.6928Z" fill="#5E17EB"/>
<path d="M114.006 15.6095C113.147 14.823 112.902 13.7709 112.902 12.8334C112.907 11.3907 113.465 10.1459 113.475 10.1251H113.48C113.558 9.94279 113.772 9.86467 113.954 9.94279C114.136 10.0261 114.215 10.2345 114.136 10.4168C114.142 10.422 113.616 11.5834 113.621 12.8334C113.626 13.6615 113.829 14.474 114.496 15.073C114.642 15.2084 114.652 15.4376 114.517 15.5834C114.444 15.6615 114.35 15.7032 114.251 15.7032C114.163 15.7032 114.079 15.672 114.006 15.6095Z" fill="#5E17EB"/>
<path d="M110.996 15.1303C109.668 14.5313 109.485 13.2293 109.491 12.5886C109.491 12.5522 109.496 12.5209 109.496 12.4949C109.501 12.297 109.668 12.1407 109.871 12.1511C110.069 12.1563 110.22 12.323 110.215 12.5209C110.215 12.547 110.215 12.5678 110.215 12.5886C110.22 13.1355 110.355 14.0574 111.293 14.4688C111.475 14.5522 111.553 14.7657 111.475 14.948C111.412 15.0782 111.282 15.1615 111.142 15.1615C111.095 15.1615 111.043 15.1511 110.996 15.1303Z" fill="#5E17EB"/>
<path d="M119.079 17.9272C117.074 17.1824 116.548 15.5313 116.569 14.2657C116.569 13.1407 116.923 12.2449 116.928 12.224H116.933C117.001 12.0365 117.209 11.948 117.397 12.0209C117.584 12.0886 117.673 12.3022 117.6 12.4845C117.605 12.4897 117.287 13.2918 117.287 14.2657C117.308 15.3855 117.642 16.599 119.334 17.2501C119.522 17.3178 119.616 17.5313 119.543 17.7188C119.491 17.8595 119.35 17.948 119.204 17.948C119.168 17.948 119.121 17.9428 119.079 17.9272Z" fill="#5E17EB"/>
<path d="M123.517 17.8959C123.465 17.7032 123.584 17.5053 123.777 17.4584C126.105 16.8751 126.418 14.9116 126.428 13.7241C126.428 13.2449 126.376 12.9376 126.376 12.9376C126.34 12.7449 126.47 12.5574 126.668 12.5209C126.86 12.4845 127.048 12.6147 127.084 12.8074C127.09 12.8282 127.152 13.1876 127.152 13.7241C127.173 15.0001 126.73 17.4636 123.954 18.1563C123.923 18.1668 123.892 18.172 123.86 18.172C123.699 18.172 123.553 18.0626 123.517 17.8959Z" fill="#5E17EB"/>
<path d="M121.527 18.4584C121.334 18.4011 121.225 18.198 121.282 18.0105C121.418 17.5574 121.47 17.0522 121.465 16.5886C121.47 15.6563 121.277 14.8855 121.277 14.8855C121.23 14.6928 121.35 14.4949 121.543 14.448C121.735 14.4011 121.928 14.5209 121.975 14.7136C121.98 14.7293 122.183 15.5626 122.188 16.5886C122.183 17.1043 122.136 17.6668 121.975 18.2136C121.928 18.3699 121.782 18.474 121.626 18.474C121.595 18.474 121.558 18.4688 121.527 18.4584Z" fill="#5E17EB"/>
<path d="M110.345 6.03134C110.267 5.94801 110.277 5.8178 110.36 5.73968C111.178 5.01051 112.308 4.18239 113.517 3.93239C113.626 3.90634 113.74 3.97926 113.761 4.08864C113.782 4.20322 113.709 4.31259 113.6 4.33343C112.522 4.55218 111.423 5.34384 110.636 6.04697V6.05218C110.6 6.08343 110.548 6.09905 110.501 6.09905C110.444 6.09905 110.386 6.07822 110.345 6.03134Z" fill="#5E17EB"/>
<path d="M128.866 5.36467C128.813 5.26051 128.855 5.14072 128.954 5.08863C129.741 4.70842 130.511 4.40634 131.272 4.40634C131.298 4.40634 131.329 4.40634 131.371 4.41155C131.485 4.42197 131.569 4.51572 131.558 4.6303C131.553 4.74488 131.454 4.82822 131.345 4.8178H131.272C130.621 4.8178 129.902 5.08863 129.136 5.45842C129.11 5.47405 129.079 5.47926 129.048 5.47926C128.97 5.47926 128.897 5.43759 128.866 5.36467Z" fill="#5E17EB"/>
<path d="M118.022 4.79696C116.985 4.21363 115.288 4.07821 115.282 4.07821V4.08342C115.168 4.073 115.084 3.97404 115.09 3.85946C115.1 3.74488 115.199 3.66154 115.314 3.67196C115.324 3.67717 117.053 3.79175 118.22 4.43759C119.324 5.05738 121.788 7.19279 124.032 7.18238C124.105 7.18238 124.183 7.18238 124.261 7.17717C125.079 7.11988 125.678 6.89592 126.506 6.48967C126.605 6.44279 126.73 6.48446 126.777 6.58342C126.829 6.68759 126.782 6.80738 126.683 6.85946C125.85 7.27092 125.178 7.53134 124.288 7.58863C124.199 7.58863 124.116 7.59384 124.032 7.59384C121.553 7.58342 119.053 5.35425 118.022 4.79696Z" fill="#5E17EB"/>
<path d="M10.0976 33.7983C16.9466 33.5483 18.3997 29.1993 18.3997 23.8504C18.3997 23.1525 18.3997 22.5483 18.5976 22.2514C19.1497 21.2983 19.6497 22.0014 19.4466 20.1004C19.3476 19.4025 18.9986 18.6004 18.0507 18.5483C15.6497 18.1004 10.9466 18.1525 11.0976 20.3504C10.8476 23.5483 13.3997 21.4493 13.4986 23.4025V25.1993C13.4986 27.5014 11.3007 29.1993 8.99864 27.5014C6.8476 26.2983 6.99864 18.9493 6.99864 15.5483C6.99864 13.3504 7.49864 7.50141 9.8476 7.04829C11.3476 6.35037 13.3997 8.25141 14.0507 10.9493C14.3007 12.5483 16.0976 13.0014 17.2486 12.1525C19.4986 10.4493 18.1497 4.94933 14.6966 2.90245C11.7486 1.10037 7.05072 0.600368 4.0976 3.79829C0.498638 7.75141 -0.402403 15.7983 0.149679 21.4493C0.399679 25.6993 1.05072 27.8504 3.14968 30.6525C4.39968 32.2983 6.8476 34.0014 10.0976 33.7983Z" fill="black"/>
<path d="M33.4986 33.9025C42.8475 33.4493 44.0975 22.5014 44.1496 15.2514C44.1496 11.3504 42.9465 7.85037 40.5506 4.44933C37.3475 -0.347549 26.9986 -1.95171 24.0975 7.40245C22.3475 13.1993 21.4465 22.0014 24.4986 28.0483C26.2486 31.9493 29.3475 33.9025 33.4986 33.9025ZM32.1496 25.2514C31.4986 22.8504 30.6965 14.9493 32.4465 7.40245C34.0506 2.60037 37.9986 7.35037 38.5506 11.5483C39.3006 16.3504 37.9986 28.7514 35.0975 28.7514C33.6965 28.9025 32.8006 27.6004 32.1496 25.2514Z" fill="black"/>
<path d="M58.1485 33.9025C67.4974 33.4493 68.7474 22.5014 68.7995 15.2514C68.7995 11.3504 67.5964 7.85037 65.2005 4.44933C61.9974 -0.347549 51.6485 -1.95171 48.7474 7.40245C46.9974 13.1993 46.0964 22.0014 49.1485 28.0483C50.8985 31.9493 53.9974 33.9025 58.1485 33.9025ZM56.7995 25.2514C56.1485 22.8504 55.3464 14.9493 57.0964 7.40245C58.7005 2.60037 62.6485 7.35037 63.2005 11.5483C63.9505 16.3504 62.6485 28.7514 59.7474 28.7514C58.3464 28.9025 57.4505 27.6004 56.7995 25.2514Z" fill="black"/>
<path d="M77.4965 34.1993C84.1006 33.7983 90.5486 26.7983 90.7465 17.8504C91.1475 9.94934 86.3975 2.60038 78.0486 1.60038C73.3975 1.19934 71.9496 2.25143 71.8506 7.0483C71.7465 13.4493 71.8506 28.9025 72.1006 30.1525C72.6475 33.1004 74.5486 34.5483 77.4965 34.1993ZM78.8975 27.1993V7.69934C78.8975 5.19934 80.1006 5.65247 80.9965 6.90247C84.2986 11.5014 84.5486 17.9025 83.9965 23.2983C83.6006 25.9025 81.6475 29.6993 79.7986 29.1004C78.8975 28.7514 78.8975 28.0014 78.8975 27.1993Z" fill="black"/>
<path d="M167.229 33.5855C168.782 33.3876 169.578 32.4397 169.828 30.3876C169.927 26.8407 169.782 17.2938 169.979 11.398C169.979 9.94489 170.078 6.4501 170.177 5.89801C170.328 4.64801 171.032 4.45009 172.282 4.50218C173.578 4.50218 175.125 4.20009 175.276 3.10114C175.526 1.15322 174.776 0.653219 173.229 0.252178C168.631 -0.0499063 164.735 -0.0967803 160.282 0.200094C159.183 0.299053 158.136 0.601135 157.933 1.79905C157.735 3.04905 158.537 4.25218 160.683 4.25218C162.735 4.54905 162.584 5.64801 162.631 8.09593V19.5438C162.683 22.2938 162.584 31.3407 163.381 32.4866C164.032 33.3355 165.183 33.7886 167.229 33.5855Z" fill="black"/>
<path d="M189.321 33.4397C198.665 32.9865 199.915 22.0438 199.967 14.7938C199.967 10.898 198.769 7.398 196.368 4.00216C193.17 -0.799921 182.827 -2.39888 179.926 6.95008C178.176 12.747 177.275 21.5438 180.327 27.5907C182.077 31.4865 185.176 33.4397 189.321 33.4397ZM187.973 24.7886C187.321 22.3928 186.525 14.497 188.269 6.95008C189.874 2.1532 193.821 6.898 194.368 11.0959C195.118 15.8928 193.821 28.2886 190.92 28.2886C189.519 28.4397 188.624 27.1376 187.973 24.7886Z" fill="black"/>
<path d="M224.203 33.3355C227.005 33.9865 229.802 33.5855 232.5 32.3355C237.349 30.0386 236.448 22.6897 233.953 20.7938C231.901 19.3459 232.401 18.6949 233.354 16.7938C235.453 13.4449 235.651 10.9449 234.599 7.45009C233.302 3.00217 229.005 0.101129 224.354 0.351129C220.708 0.549046 219.406 1.79905 219.359 5.29905C218.656 17.2418 219.109 19.8407 219.307 27.5907C219.557 30.9397 220.958 32.5855 224.203 33.3355ZM225.453 5.99696C225.906 4.148 228.156 6.79905 228.703 10.4449C229.052 13.148 228.755 16.1428 226.505 18.0959C224.557 19.5438 225.104 7.09592 225.453 5.99696ZM226.156 28.1376C225.557 26.0907 224.906 22.0907 227.604 23.0438C229.255 23.8407 229.901 26.8876 228.406 28.4918C227.656 29.3876 226.703 29.2365 226.156 28.1376Z" fill="black"/>
<path d="M245.546 33.2886C248.447 33.4866 251.291 33.0386 253.244 32.2886C254.041 31.8355 255.442 31.5386 254.942 30.2886C254.64 29.2886 253.89 28.9397 252.895 28.8876C252.244 28.8876 249.192 29.0907 248.494 28.8876C247.145 28.3876 246.494 27.3876 246.697 25.2886C246.796 23.1897 247.244 22.8407 249.145 22.6897C250.395 22.5907 251.645 22.6897 252.843 22.4397C255.14 21.3928 253.89 19.2418 252.791 19.2418C250.645 18.6949 246.098 20.1428 246.046 15.8928C245.994 13.0959 246.098 11.2991 246.197 8.4501C246.296 3.9501 246.645 3.9501 251.192 3.64801C252.244 3.64801 253.494 3.64801 253.64 2.39801C253.593 -0.346776 246.197 0.351139 243.447 0.549056C240.447 0.700097 239.749 1.29906 239.296 4.4501C239.197 6.60114 238.9 18.7939 239.046 22.9918C239.098 24.0907 238.848 26.8407 239.249 29.0907C239.848 32.5855 241.999 33.0855 245.546 33.2886Z" fill="black"/>
<path d="M278.883 33.3355C280.93 33.3355 282.18 31.7365 282.581 28.8876C282.68 22.3928 282.43 22.9397 282.43 16.8459C282.43 16.4969 282.627 16.3928 282.778 16.7469L283.18 17.6428C284.976 21.8407 286.528 27.0386 287.528 29.8407C288.278 31.7365 289.528 33.2365 290.924 33.0386C294.075 32.4865 295.174 28.6376 295.023 24.1428C294.825 17.4917 295.122 11.549 294.825 4.89799C294.825 2.60111 294.372 -0.0499299 292.127 0.252154C290.877 0.601111 290.226 1.25215 290.174 2.45007C290.174 3.10111 290.226 15.8928 290.627 21.9397C290.627 24.7886 290.174 24.7417 289.075 20.2938C287.627 15.0959 286.226 9.74695 284.68 4.50215C283.778 1.60111 281.528 0.20007 278.534 0.502154C275.133 1.04903 274.232 5.10111 274.232 6.89799C274.081 13.0438 273.982 19.1949 274.081 25.2417C274.081 26.6897 274.185 27.9397 274.331 29.4397C274.732 32.0386 276.534 33.4865 278.883 33.3355Z" fill="black"/>
<path d="M315.565 32.8355C317.012 33.5855 318.414 33.7365 319.611 32.8355C320.815 31.7365 320.565 30.4865 320.21 29.1897C319.512 24.8928 318.664 20.5438 318.012 16.3928C316.966 11.3459 316.117 5.648 313.268 2.1532C309.466 -1.0968 303.82 0.903204 303.169 6.20008C303.018 6.648 299.221 20.5438 298.424 26.6428C298.174 28.1376 297.971 29.4865 298.07 31.0907C298.221 34.0386 302.622 34.0855 303.669 31.2886C304.07 30.2365 304.32 29.2365 304.57 28.0386C305.221 25.2886 305.471 25.0386 308.419 24.8928C309.268 24.8407 311.966 24.3407 312.664 27.0907C312.716 29.2886 313.617 32.0386 315.565 32.8355ZM306.169 19.7417C306.117 18.8928 307.367 11.898 308.07 8.54904C308.518 6.648 309.419 6.398 309.466 7.84591C310.117 11.247 310.669 14.7938 311.268 18.0959C311.268 19.0959 311.466 20.2417 310.466 20.7417C309.367 21.3928 308.117 21.4917 306.867 21.1428C306.367 21.0438 306.169 20.3928 306.169 19.7417Z" fill="black"/>
<path d="M327.11 33.4397C329.907 33.8355 330.709 31.8355 330.756 29.3407C330.756 27.4397 331.709 27.4918 333.006 28.5907C334.308 29.9397 337.407 34.2886 339.605 32.8876C340.704 32.2886 341.251 30.6376 340.954 29.5386C340.803 27.8876 338.152 25.1428 336.256 23.2418C333.006 20.1428 334.355 20.2938 336.157 17.1949C337.506 15.0959 342.001 8.4501 342.605 4.14801C342.954 1.85114 339.355 -0.445737 337.553 1.4501C335.756 3.7001 331.558 15.747 330.808 15.747C330.308 15.8459 330.756 8.84593 330.756 7.4501C331.006 5.2001 331.308 1.54906 330.157 0.903222C328.709 0.0490552 326.61 -0.299903 325.209 0.601139C324.262 1.2001 323.959 1.75218 323.913 3.9501C323.663 11.1949 323.663 20.9449 323.512 28.2886C323.459 30.9866 324.012 33.3876 327.11 33.4397Z" fill="black"/>
<path d="M352.148 33.2886C355.05 33.4866 357.893 33.0386 359.846 32.2886C360.643 31.8355 362.044 31.5386 361.544 30.2886C361.242 29.2886 360.492 28.9397 359.497 28.8876C358.846 28.8876 355.794 29.0907 355.096 28.8876C353.747 28.3876 353.096 27.3876 353.3 25.2886C353.398 23.1897 353.846 22.8407 355.747 22.6897C356.997 22.5907 358.247 22.6897 359.445 22.4397C361.742 21.3928 360.492 19.2418 359.393 19.2418C357.247 18.6949 352.701 20.1428 352.648 15.8928C352.596 13.0959 352.701 11.2991 352.8 8.4501C352.898 3.9501 353.247 3.9501 357.794 3.64801C358.846 3.64801 360.096 3.64801 360.242 2.39801C360.195 -0.346776 352.8 0.351139 350.05 0.549056C347.05 0.700097 346.352 1.29906 345.898 4.4501C345.8 6.60114 345.503 18.7939 345.648 22.9918C345.701 24.0907 345.451 26.8407 345.852 29.0907C346.451 32.5855 348.602 33.0855 352.148 33.2886Z" fill="black"/>
<path d="M370.341 33.7365C376.935 33.3355 383.383 26.3407 383.586 17.3928C383.987 9.49696 379.237 2.15321 370.888 1.15321C366.242 0.752171 364.794 1.79905 364.69 6.60113C364.591 12.997 364.69 28.4397 364.94 29.6897C365.492 32.6376 367.393 34.0855 370.341 33.7365ZM371.742 26.7418V7.24696C371.742 4.74696 372.94 5.20009 373.841 6.45009C377.138 11.049 377.388 17.4449 376.836 22.8407C376.44 25.4397 374.487 29.2365 372.638 28.6376C371.742 28.2886 371.742 27.5386 371.742 26.7418Z" fill="black"/>
</svg>
